<svg id="Layer_1" data-name="Layer 1" xmlns="http://www.w3.org/2000/svg" viewBox="0 0 703.29 745.09"><defs><style>.cls-1{opacity:0.5;}.cls-2{opacity:0.2;}</style></defs><title>pb-icon</title><path fill="white" d="M731.52,232.52,397,430.73a17.11,17.11,0,0,1-17.45,0L45,232.52a17.12,17.12,0,0,1,0-29.46L379.54,4.85a17.11,17.11,0,0,1,17.45,0L731.52,203.06A17.12,17.12,0,0,1,731.52,232.52Z" transform="translate(-36.62 -2.46)"/><path class="cls-1" fill="white" d="M731.52,399.94,397,598.15a17.11,17.11,0,0,1-17.45,0L45,399.94a17.12,17.12,0,0,1,0-29.46L379.54,172.27a17.11,17.11,0,0,1,17.45,0L731.52,370.48A17.12,17.12,0,0,1,731.52,399.94Z" transform="translate(-36.62 -2.46)"/><path fill="white" class="cls-2" d="M731.52,546.94,397,745.15a17.11,17.11,0,0,1-17.45,0L45,546.94a17.12,17.12,0,0,1,0-29.46L379.54,319.27a17.11,17.11,0,0,1,17.45,0L731.52,517.48A17.12,17.12,0,0,1,731.52,546.94Z" transform="translate(-36.62 -2.46)"/></svg>
