<svg xmlns="http://www.w3.org/2000/svg" xmlns:xlink="http://www.w3.org/1999/xlink" viewBox="0 0 536.07 301.54"><defs><style>.a{fill:none;}.b{isolation:isolate;}.c{fill:#2733a0;}.d{fill:#3447b7;}.e,.q,.v{fill:#fff;}.f{fill:#00f3f9;}.g{fill:#3875ff;}.h{fill:#00e8e8;}.i{fill:#05d8d8;}.j{fill:#aa3eff;}.k{fill:#8f2eff;}.l{fill:#7e00f7;}.m{fill:#dfe8f7;}.n{clip-path:url(#a);}.o{fill:#c8d7ed;}.p{fill:#fd3b3b;}.q{mix-blend-mode:soft-light;}.r{fill:#555d75;}.s{fill:#51566c;}.t{fill:#e02020;}.u{fill:#a2a9bf;}.v{opacity:0.17;}.w{fill:#dde1eb;}.x{clip-path:url(#b);}</style><clipPath id="a"><path class="a" d="M277.22,130.67c-15.16-15.16-37.45-17.44-49.79-5.09l54.88,54.88C294.65,168.12,292.37,145.83,277.22,130.67Z"/></clipPath><clipPath id="b"><path class="a" d="M142.24,59.13c0,4.19-6.28,7.58-14,7.58s-14-3.39-14-7.58c0-9.79,6.28-14.12,14-14.12S142.24,49.43,142.24,59.13Z"/></clipPath></defs><title>addons</title><g class="b"><rect class="c" width="536.07" height="301.54"/><circle class="d" cx="57.29" cy="119.09" r="22.7"/><circle class="c" cx="48.09" cy="110.9" r="4.94"/><circle class="c" cx="57.21" cy="102.78" r="1.77"/><circle class="c" cx="44.91" cy="131.22" r="1.77"/><circle class="c" cx="60.83" cy="132.33" r="3.17"/><circle class="c" cx="70.28" cy="120.79" r="4.94"/><path class="d" d="M156.75,237.89H279.48a20,20,0,0,0,19.94-19.94v-2.66a19,19,0,0,1,19-19h69.42a20,20,0,0,0,19.94-19.94V149.1a20,20,0,0,0-19.94-19.94H357.43a19,19,0,0,1-19-19v-21A20.28,20.28,0,0,0,318.17,69H196a20.28,20.28,0,0,0-20.22,20.22v62.59a19,19,0,0,1-19,19h0a20,20,0,0,0-19.94,19.94v27.21A20,20,0,0,0,156.75,237.89Z"/><circle class="e" cx="164.72" cy="88.66" r="3.08"/><circle class="e" cx="430.88" cy="255.1" r="3.08"/><circle class="e" cx="252.08" cy="93.27" r="1.54"/><circle class="e" cx="245.9" cy="41.96" r="1.54"/><circle class="e" cx="35.76" cy="185.42" r="1.54"/><circle class="f" cx="424.6" cy="162.78" r="1.54"/><circle class="f" cx="118.74" cy="116.5" r="1.54"/><circle class="f" cx="477.06" cy="191.83" r="1.54"/><circle class="f" cx="492.28" cy="41.96" r="1.54"/><circle class="f" cx="100.55" cy="232" r="1.54"/><circle class="f" cx="29.35" cy="39.21" r="1.54"/><circle class="f" cx="343.57" cy="233.53" r="1.54"/><circle class="g" cx="352.57" cy="150.5" r="1.54"/><circle class="g" cx="148.78" cy="255.1" r="1.54"/><circle class="g" cx="492.28" cy="132.99" r="1.54"/><circle class="g" cx="91.48" cy="169.51" r="1.54"/><circle class="g" cx="435.5" cy="75.77" r="1.54"/><circle class="e" cx="371.52" cy="66.71" r="3.08"/><circle class="e" cx="161.64" cy="194.91" r="3.08"/><circle class="e" cx="211.32" cy="215.86" r="1.88"/><circle class="e" cx="311.11" cy="172.59" r="3.08"/><path class="g" d="M235.6,259.86a5.28,5.28,0,1,1,5.28-5.28A5.29,5.29,0,0,1,235.6,259.86Zm0-9a3.76,3.76,0,1,0,3.76,3.76A3.76,3.76,0,0,0,235.6,250.82Z"/><path class="g" d="M366.13,205A10.82,10.82,0,1,1,377,194.16,10.83,10.83,0,0,1,366.13,205Zm0-18.52a7.7,7.7,0,1,0,7.7,7.7A7.71,7.71,0,0,0,366.13,186.46Z"/><path class="g" d="M173.85,130.15a5.86,5.86,0,1,1,5.86-5.86A5.87,5.87,0,0,1,173.85,130.15Zm0-10a4.17,4.17,0,1,0,4.17,4.17A4.18,4.18,0,0,0,173.85,120.12Z"/><path class="g" d="M300.81,74.23A5.28,5.28,0,1,1,306.09,69,5.29,5.29,0,0,1,300.81,74.23Zm0-9A3.76,3.76,0,1,0,304.57,69,3.76,3.76,0,0,0,300.81,65.19Z"/><path class="g" d="M314.18,214a5.28,5.28,0,1,1,5.28-5.28A5.29,5.29,0,0,1,314.18,214Zm0-9a3.76,3.76,0,1,0,3.76,3.76A3.76,3.76,0,0,0,314.18,204.94Z"/><circle class="f" cx="414.76" cy="113.4" r="17.19"/><path class="h" d="M419.18,96.79a17.19,17.19,0,0,1-16.86,28.46,17.18,17.18,0,1,0,16.86-28.46Z"/><circle class="i" cx="407.8" cy="107.2" r="3.74"/><circle class="i" cx="414.71" cy="101.05" r="1.34"/><circle class="i" cx="405.39" cy="122.58" r="1.34"/><circle class="i" cx="417.44" cy="123.42" r="2.4"/><circle class="i" cx="424.6" cy="114.68" r="3.74"/><path class="e" d="M437.9,105.15c-1.12-3.1-5.25-4.87-11.36-4.87h-.68c.35.29.69.6,1,.92,5.51.06,9.21,1.6,10.17,4.26,1.87,5.2-6.86,13.13-19.46,17.67a45.84,45.84,0,0,1-17.33,3c-4.88-.27-8-1.77-8.93-4.22-1-2.81,1.68-7,6.41-10.72.06-.44.12-.87.21-1.3l-.09,0c-5.57,4.2-8.62,8.9-7.4,12.29,1,2.82,4.47,4.53,9.74,4.83q.8,0,1.64,0A48.86,48.86,0,0,0,417.88,124C431.18,119.2,440,110.92,437.9,105.15Z"/><path class="i" d="M430.88,119.31a50.91,50.91,0,0,1-12.47,6.41,52.31,52.31,0,0,1-11.8,2.82,16.55,16.55,0,0,0,1.54.72,56.4,56.4,0,0,0,22.11-8.4C430.48,120.38,430.71,119.79,430.88,119.31Z"/><circle class="j" cx="288.79" cy="261.7" r="9.07"/><path class="k" d="M291.12,252.94a9.07,9.07,0,0,1-8.9,15,9.07,9.07,0,1,0,8.9-15Z"/><circle class="l" cx="285.12" cy="258.43" r="1.98"/><circle class="l" cx="288.76" cy="255.19" r="0.71"/><circle class="l" cx="283.85" cy="266.55" r="0.71"/><circle class="l" cx="290.21" cy="266.99" r="1.27"/><circle class="l" cx="293.99" cy="262.38" r="1.98"/><path class="e" d="M231.76,149.23a2.49,2.49,0,0,0-3.52,0L207,170.5a2.48,2.48,0,0,0,.21,3.26h0a2.49,2.49,0,0,0,3.52,0l21.06-21A2.49,2.49,0,0,0,231.76,149.23Z"/><path class="c" d="M228.26,180.71a2.58,2.58,0,0,0-3.52.19l-1,1a2.58,2.58,0,0,1-3.52.19,2.49,2.49,0,0,1-.1-3.61l10.74-10.74a2.58,2.58,0,0,0,.19-3.52,2.49,2.49,0,0,0-3.61-.1l-17.27,17.22a2.49,2.49,0,0,0,0,3.52h0a2.49,2.49,0,0,0,3.52,0l.89-.89a2.58,2.58,0,0,1,3.52-.19,2.49,2.49,0,0,1,.1,3.61l-5.94,5.94a2.49,2.49,0,0,0,0,3.52l0,0a2.49,2.49,0,0,0,3.52,0l12.54-12.54A2.49,2.49,0,0,0,228.26,180.71Z"/><path class="c" d="M239.53,184.4a2.49,2.49,0,0,0-3.52,0l-9.73,9.73a2.48,2.48,0,0,0,.21,3.26h0a2.49,2.49,0,0,0,3.52,0l9.52-9.47A2.49,2.49,0,0,0,239.53,184.4Z"/><path class="e" d="M261.34,176.67a2.49,2.49,0,0,0-3.52,0l-14.25,14.25a2.48,2.48,0,0,0,.21,3.26h0a2.49,2.49,0,0,0,3.52,0l14-14A2.49,2.49,0,0,0,261.34,176.67Z"/><path class="m" d="M277.22,130.67c-12.76-12.76-30.59-16.4-43.27-9.85a6.09,6.09,0,0,0-1.56,9.73l44.95,44.95a6.09,6.09,0,0,0,9.73-1.56C293.61,161.26,290,143.43,277.22,130.67Z"/><g class="n"><path class="f" d="M311.81,96.08c-12.26-12.26-67,22.61-83.46,39.05l44.41,44.41C289.19,163.11,324.07,108.35,311.81,96.08Z"/></g><path class="m" d="M307.49,100.4c-10.54-10.54-57.58,19.42-71.7,33.55l38.15,38.15C288.06,158,318,110.93,307.49,100.4Z"/><path class="o" d="M299,100.16c8.25,10.25-18,45.4-34.91,62.11l9.83,9.83C288.06,158,318,110.93,307.49,100.4c-2.15-2.15-5.83-2.61-10.44-1.87A6.65,6.65,0,0,1,299,100.16Z"/><path class="p" d="M279.46,104.66q-2,.94-4,2l25.8,25.8q1-2,2-4Z"/><path class="f" d="M257.9,160.89l-3.63-3.63-3.63-3.63L247,150l-3.63-3.63L233.71,156a2.57,2.57,0,0,0,0,3.63h0a2.57,2.57,0,0,0,3.63,0l1.22-1.22a2.57,2.57,0,0,1,3.63,0h0a2.57,2.57,0,0,1,0,3.63L231,173.24a2.57,2.57,0,0,0,0,3.63h0a2.57,2.57,0,0,0,3.63,0l6.82-6.82a2.57,2.57,0,0,1,3.63,0h0a2.57,2.57,0,0,1,0,3.63l-3.4,3.4a2.57,2.57,0,0,0,0,3.63h0a2.57,2.57,0,0,0,3.63,0l16.2-16.2Z"/><path class="q" d="M309.36,104a7.29,7.29,0,0,0-1.87-3.57c-10.54-10.54-57.58,19.42-71.7,33.55l2.8,2.8C253.63,122.35,298.9,93.83,309.36,104Z"/><circle class="r" cx="269.33" cy="121.29" r="2.2" transform="translate(-6.88 225.97) rotate(-45)"/><circle class="r" cx="286.59" cy="138.56" r="2.2" transform="translate(-14.03 243.24) rotate(-45)"/><path class="s" d="M267.17,140.73a11.09,11.09,0,0,1-3-10,1,1,0,0,1,2,.39,9,9,0,0,0,10.59,10.61,1,1,0,0,1,.39,2A11.08,11.08,0,0,1,267.17,140.73Z"/><path class="t" d="M293.39,124.55l7.87,7.87q1-2,2-4l-7.74-7.74Q294.51,122.59,293.39,124.55Z"/><path class="d" d="M173.69,74.75a2.49,2.49,0,0,0-2.49-2.49H141.12A2.48,2.48,0,0,0,139,74.72h0a2.49,2.49,0,0,0,2.49,2.49l29.75,0A2.49,2.49,0,0,0,173.69,74.75Z"/><path class="d" d="M122.34,183.2a2.49,2.49,0,0,0-2.49-2.49H89.77a2.48,2.48,0,0,0-2.16,2.46h0a2.49,2.49,0,0,0,2.49,2.49l29.75,0A2.49,2.49,0,0,0,122.34,183.2Z"/><path class="d" d="M392.33,29.57a2.49,2.49,0,0,0-2.49-2.49H359.76a2.48,2.48,0,0,0-2.16,2.46h0A2.49,2.49,0,0,0,360.09,32l29.75,0A2.49,2.49,0,0,0,392.33,29.57Z"/><path class="d" d="M440.22,203.4a2.49,2.49,0,0,0-2.49-2.49H407.65a2.48,2.48,0,0,0-2.16,2.46h0a2.49,2.49,0,0,0,2.49,2.49l29.75,0A2.49,2.49,0,0,0,440.22,203.4Z"/><path class="d" d="M342,244.32a2.49,2.49,0,0,0-2.49-2.49H309.4a2.48,2.48,0,0,0-2.16,2.46h0a2.49,2.49,0,0,0,2.49,2.49l29.75,0A2.49,2.49,0,0,0,342,244.32Z"/><path class="f" d="M167,35.18H146.05a3.44,3.44,0,0,0-3.43,3.43v5.95a3.44,3.44,0,0,0,3.1,3.41V50.6a1,1,0,0,0,1.59.71L151,48H167a3.44,3.44,0,0,0,3.43-3.43V38.61A3.44,3.44,0,0,0,167,35.18Z"/><path class="h" d="M168.32,35.46a3.57,3.57,0,0,1,0,.47v6.29a3.64,3.64,0,0,1-3.63,3.63H142.87A3.45,3.45,0,0,0,145.72,48V50.6a1,1,0,0,0,1.59.71L151,48H167a3.44,3.44,0,0,0,3.43-3.43V38.61A3.44,3.44,0,0,0,168.32,35.46Z"/><ellipse class="u" cx="128.09" cy="70.27" rx="15.61" ry="13.41"/><ellipse class="u" cx="128.09" cy="70.27" rx="15.61" ry="13.41"/><path class="v" d="M118.74,70.27c0-6.49,5.36-11.9,12.48-13.14a18.18,18.18,0,0,0-3.13-.27c-8.62,0-15.61,6-15.61,13.41s7,13.41,15.61,13.41a18.18,18.18,0,0,0,3.13-.27C124.1,82.17,118.74,76.76,118.74,70.27Z"/><ellipse class="w" cx="128.22" cy="65.46" rx="28.74" ry="11.67"/><path class="g" d="M142.24,59.13c0,4.19-6.28,7.58-14,7.58s-14-3.39-14-7.58c0-9.79,6.28-14.12,14-14.12S142.24,49.43,142.24,59.13Z"/><rect class="f" x="127.61" y="51.25" width="0.61" height="6.61" rx="0.31" ry="0.31"/><rect class="f" x="126.54" y="49.67" width="2.76" height="2.76" rx="1.38" ry="1.38"/><g class="x"><rect class="f" x="121.87" y="55.86" width="11.94" height="19.19" rx="5.97" ry="5.97"/><rect class="f" x="115.78" y="60.26" width="4.62" height="7.43" rx="2.31" ry="2.31"/><rect class="f" x="135.22" y="60.26" width="4.62" height="7.43" rx="2.31" ry="2.31"/></g><rect class="e" x="125.09" y="57.43" width="5.65" height="5.65" rx="2.83" ry="2.83"/><rect class="r" x="127.12" y="58.86" width="2.79" height="2.79" rx="1.4" ry="1.4"/><rect class="e" x="127.12" y="58.86" width="1.11" height="1.11" rx="0.55" ry="0.55"/><circle class="g" cx="152.52" cy="40.94" r="1.02"/><circle class="g" cx="156.64" cy="40.94" r="1.02"/><circle class="g" cx="160.75" cy="40.94" r="1.02"/></g></svg>