<svg width="1280px" height="720px" viewBox="1486 -34 1280 720" version="1.1" xmlns="http://www.w3.org/2000/svg" xmlns:xlink="http://www.w3.org/1999/xlink">
	<defs>
		<rect id="path-1" x="0" y="0" width="1280" height="720"></rect>
		<mask id="mask-2" maskContentUnits="userSpaceOnUse" maskUnits="objectBoundingBox" x="0" y="0" width="1280" height="720" fill="white">
			<use xlink:href="#path-1"></use>
		</mask>
		<linearGradient x1="50%" y1="0%" x2="50%" y2="100%" id="linearGradient-3">
			<stop stop-color="#56B6EE" offset="0%"></stop>
			<stop stop-color="#56B6EE" offset="100%"></stop>
		</linearGradient>
	</defs>
	<g id="Artboard-Copy" stroke="none" stroke-width="1" fill="none" fill-rule="evenodd" transform="translate(1486.000000, -34.000000)">
		<use id="Rectangle" stroke="#979797" mask="url(#mask-2)" stroke-width="2" fill="#36414E" xlink:href="#path-1"></use>
		<g id="Main-Icon" transform="translate(533.000000, 144.000000)">
			<path d="M48.3379345,0 L166.864267,0 C193.560662,0 214.703452,21.708675 214.703452,48.465 L214.703452,166.725 C214.703452,193.481325 193.560662,215.692875 166.864267,215.692875 L48.3379345,215.692875 C35.5132703,215.688221 23.2157169,210.581479 14.1505962,201.496072 C5.08547553,192.410666 -0.00464493601,180.090825 3.43025921e-06,167.246775 L3.43025921e-06,48.446775 C-0.0048237309,35.6026078 5.08521779,23.2825937 14.1503579,14.1970413 C23.215498,5.111489 35.5131535,0.00465368236 48.3379345,0 Z" id="Icon-Wrapper" fill="url(#linearGradient-3)"></path>
			<g id="Icon-Shape" transform="translate(44.959638, 42.166620)" fill-rule="nonzero" fill="#FFFFFF">
				<path d="M123.487795,40.6558054 L64.5452331,75.6816114 C63.5973315,76.2447621 62.4187131,76.2447621 61.4708116,75.6816114 L2.5282492,40.6558054 C1.61140316,40.1111247 1.04913772,39.1216475 1.04913772,38.0528584 C1.04913772,36.9840693 1.61140316,35.994592 2.5282492,35.4499114 L61.4743353,0.424105415 C62.4222368,-0.139045322 63.6008552,-0.139045322 64.5487568,0.424105415 L123.487795,35.4499114 C124.404641,35.994592 124.966907,36.9840693 124.966907,38.0528584 C124.966907,39.1216475 124.404641,40.1111247 123.487795,40.6558054 L123.487795,40.6558054 Z" id="Shape"></path>
				<path d="M122.606872,69.4596315 L63.66431,104.485437 C62.7164084,105.048588 61.5377901,105.048588 60.5898885,104.485437 L1.64732613,69.4596315 C0.730480097,68.9149509 0.168214657,67.9254736 0.168214657,66.8566845 C0.168214657,65.7878954 0.730480097,64.7984182 1.64732613,64.2537375 L60.5934122,29.2279315 C61.5413138,28.6647808 62.7199321,28.6647808 63.6678337,29.2279315 L122.606872,64.2537375 C123.523718,64.7984182 124.085984,65.7878954 124.085984,66.8566845 C124.085984,67.9254736 123.523718,68.9149509 122.606872,69.4596315 Z" id="Shape" opacity="0.5"></path>
				<path d="M122.606872,95.4360882 L63.66431,130.461894 C62.7164084,131.025045 61.5377901,131.025045 60.5898885,130.461894 L1.64732613,95.4360882 C0.730480097,94.8914076 0.168214657,93.9019303 0.168214657,92.8331412 C0.168214657,91.7643521 0.730480097,90.7748749 1.64732613,90.2301942 L60.5934122,55.2043882 C61.5413138,54.6412375 62.7199321,54.6412375 63.6678337,55.2043882 L122.606872,90.2301942 C123.523718,90.7748749 124.085984,91.7643521 124.085984,92.8331412 C124.085984,93.9019303 123.523718,94.8914076 122.606872,95.4360882 Z" id="Shape" opacity="0.2"></path>
			</g>
		</g>
		<text id="SiteOrigin-Addons" font-family="HelveticaNeue-Light, Helvetica Neue" font-size="58" font-weight="300" fill="#FFFFFF">
			<tspan x="414.409" y="562">SiteOrigin Addons</tspan>
		</text>
		<g id="Group" transform="translate(529.000000, 389.000000)" fill="#D8D8D8">
			<rect id="Rectangle-2" x="24.2089113" y="0" width="14.6720674" height="51.1082147"></rect>
			<rect id="Rectangle-2-Copy" transform="translate(31.544945, 25.554107) rotate(-90.000000) translate(-31.544945, -25.554107) " x="24.2089113" y="0" width="14.6720674" height="51.1082147"></rect>
		</g>
		<g id="Group-Copy" transform="translate(608.000000, 389.000000)" fill="#D8D8D8">
			<rect id="Rectangle-2" x="24.2089113" y="0" width="14.6720674" height="51.1082147"></rect>
			<rect id="Rectangle-2-Copy" transform="translate(31.544945, 25.554107) rotate(-90.000000) translate(-31.544945, -25.554107) " x="24.2089113" y="0" width="14.6720674" height="51.1082147"></rect>
		</g>
		<g id="Group-Copy-2" transform="translate(687.000000, 389.000000)" fill="#D8D8D8">
			<rect id="Rectangle-2" x="24.2089113" y="0" width="14.6720674" height="51.1082147"></rect>
			<rect id="Rectangle-2-Copy" transform="translate(31.544945, 25.554107) rotate(-90.000000) translate(-31.544945, -25.554107) " x="24.2089113" y="0" width="14.6720674" height="51.1082147"></rect>
		</g>
	</g>
</svg>
