<svg xmlns="http://www.w3.org/2000/svg" viewBox="0 0 536.07 301.54"><defs><style>.a{isolation:isolate;}.b{fill:#1defa3;}.c{fill:#00d68f;}.d{fill:#83ffcf;}.e{fill:#ffc86b;}.f,.l{fill:#fff;}.f{mix-blend-mode:soft-light;}.g{fill:#2733a0;}.h{fill:#eacfbb;}.i{fill:#ffe9d7;}.j,.r,.s{fill:none;}.j{stroke:#51566c;stroke-width:1.92px;}.j,.s{stroke-linecap:round;stroke-linejoin:round;}.k{fill:#ffd3b3;}.m{fill:#3447b7;}.n{fill:#fff4cf;}.o{fill:#f4e6bd;}.p{fill:#edd598;}.q{fill:#dde1eb;}.r,.s{stroke:#fff;}.r{stroke-miterlimit:10;stroke-width:0.84px;}.s{stroke-width:0.99px;}.t{fill:#e8ad56;}</style></defs><title>page-builder-tips</title><g class="a"><rect class="b" width="536.07" height="301.54"/><path class="c" d="M274.19,38.12h0a9.91,9.91,0,0,0,15.69,2.49h0A9.91,9.91,0,0,1,306.57,46h0a9.91,9.91,0,0,0,14.16,7.21h0a9.91,9.91,0,0,1,14.2,10.31h0A9.91,9.91,0,0,0,346.17,74.8h0A9.91,9.91,0,0,1,356.48,89h0a9.91,9.91,0,0,0,7.21,14.16h0a9.91,9.91,0,0,1,5.42,16.69h0a9.91,9.91,0,0,0,2.49,15.69h0a9.91,9.91,0,0,1,0,17.55h0a9.91,9.91,0,0,0-2.49,15.69h0a9.91,9.91,0,0,1-5.42,16.69h0a9.91,9.91,0,0,0-7.21,14.16h0a9.91,9.91,0,0,1-10.31,14.2h0a9.91,9.91,0,0,0-11.24,11.24h0a9.91,9.91,0,0,1-14.2,10.31h0a9.91,9.91,0,0,0-14.16,7.21h0A9.91,9.91,0,0,1,289.89,248h0a9.91,9.91,0,0,0-15.69,2.49h0a9.91,9.91,0,0,1-17.55,0h0A9.91,9.91,0,0,0,240.95,248h0a9.91,9.91,0,0,1-16.69-5.42h0a9.91,9.91,0,0,0-14.16-7.21h0a9.91,9.91,0,0,1-14.2-10.31h0a9.91,9.91,0,0,0-11.24-11.24h0a9.91,9.91,0,0,1-10.31-14.2h0a9.91,9.91,0,0,0-7.21-14.16h0a9.91,9.91,0,0,1-5.42-16.69h0a9.91,9.91,0,0,0-2.49-15.69h0a9.91,9.91,0,0,1,0-17.55h0a9.91,9.91,0,0,0,2.49-15.69h0a9.91,9.91,0,0,1,5.42-16.69h0A9.91,9.91,0,0,0,174.36,89h0a9.91,9.91,0,0,1,10.31-14.2h0a9.91,9.91,0,0,0,11.24-11.24h0a9.91,9.91,0,0,1,14.2-10.31h0A9.91,9.91,0,0,0,224.26,46h0a9.91,9.91,0,0,1,16.69-5.42h0a9.91,9.91,0,0,0,15.69-2.49h0A9.91,9.91,0,0,1,274.19,38.12Z"/><circle class="c" cx="133.16" cy="134.81" r="1.54"/><circle class="d" cx="46.28" cy="242.98" r="1.54"/><circle class="c" cx="479.19" cy="97.08" r="1.54"/><circle class="c" cx="398.71" cy="138.84" r="1.54"/><circle class="c" cx="480.72" cy="232.1" r="1.54"/><path class="c" d="M84,109.12A10.82,10.82,0,1,1,94.81,98.3,10.83,10.83,0,0,1,84,109.12ZM84,90.6a7.7,7.7,0,1,0,7.7,7.7A7.71,7.71,0,0,0,84,90.6Z"/><path class="d" d="M423.38,208.07a10.82,10.82,0,1,1,10.82-10.82A10.83,10.83,0,0,1,423.38,208.07Zm0-18.52a7.7,7.7,0,1,0,7.7,7.7A7.71,7.71,0,0,0,423.38,189.55Z"/><path class="c" d="M145,232.1a5.41,5.41,0,1,1,5.41-5.41A5.42,5.42,0,0,1,145,232.1Zm0-9.26a3.85,3.85,0,1,0,3.85,3.85A3.85,3.85,0,0,0,145,222.84Z"/><path class="c" d="M432.29,65.93a5.41,5.41,0,1,1,5.41-5.41A5.42,5.42,0,0,1,432.29,65.93Zm0-9.26a3.85,3.85,0,1,0,3.85,3.85A3.85,3.85,0,0,0,432.29,56.67Z"/><rect class="e" x="186.84" y="81.88" width="54.12" height="81.98" rx="25.12" ry="25.12"/><rect class="e" x="186.84" y="81.88" width="54.12" height="81.98" rx="25.12" ry="25.12"/><path class="f" d="M189.13,138.75V107a25.19,25.19,0,0,1,25.12-25.12H212A25.19,25.19,0,0,0,186.84,107v31.74A25.19,25.19,0,0,0,212,163.87h2.29A25.19,25.19,0,0,1,189.13,138.75Z"/><ellipse class="g" cx="213.9" cy="155.34" rx="23.69" ry="13.64"/><rect class="h" x="208.09" y="134.18" width="11.62" height="27.81" rx="5.81" ry="5.81"/><path class="f" d="M210.45,156.18V140a5.83,5.83,0,0,1,4.63-5.69,5.77,5.77,0,0,0-1.18-.12,5.83,5.83,0,0,0-5.81,5.81v16.19A5.83,5.83,0,0,0,213.9,162a5.77,5.77,0,0,0,1.18-.12A5.83,5.83,0,0,1,210.45,156.18Z"/><rect class="i" x="193.44" y="89.13" width="40.91" height="52.38" rx="19.54" ry="19.54"/><path class="f" d="M198.43,122v-13.3a19.6,19.6,0,0,1,18-19.47c-.52,0-1-.07-1.58-.07H213a19.6,19.6,0,0,0-19.54,19.54V122A19.6,19.6,0,0,0,213,141.51h1.83c.53,0,1.06,0,1.58-.07A19.6,19.6,0,0,1,198.43,122Z"/><path class="j" d="M203,114.23a2.66,2.66,0,1,1,5.33,0"/><path class="j" d="M220.29,114.23a2.66,2.66,0,0,1,5.33,0"/><circle class="k" cx="202.96" cy="119.1" r="1"/><circle class="k" cx="207.77" cy="119.1" r="1"/><circle class="k" cx="205.76" cy="122.88" r="1"/><circle class="k" cx="226.09" cy="119.1" r="1"/><circle class="k" cx="221.29" cy="119.1" r="1"/><circle class="k" cx="223.29" cy="122.88" r="1"/><path class="l" d="M213.9,135.61a7.39,7.39,0,0,0,7.39-7.39H206.51A7.39,7.39,0,0,0,213.9,135.61Z"/><path class="e" d="M230.41,88.23l-13.91-.37H204l-7,5.7c2.4,6.08,9.1,10.49,16.94,10.49V97.36c9,0,16.46-.2,17.7-6.69Z"/><path class="m" d="M252.56,208.49c0-.05,0-11,0-11V153.67c0-5.15-5.1-9.36-11.33-9.36H227.56q0,.29,0,.58c0,6.22-6.11,11.27-13.64,11.27s-13.64-5-13.64-11.27q0-.29,0-.58H186.56c-6.23,0-11.33,4.21-11.33,9.36v43.78c0,.05,0,11,0,11Z"/><path class="f" d="M200.32,144.31H186.56c-6.23,0-11.33,4.21-11.33,9.36v43.78c0,.05,0,11,0,11h6.38c0-2.73,0-5.44,0-5.47V159.24c0-5.15,5.1-9.36,11.33-9.36h8.76a9.65,9.65,0,0,1-1.42-5Q200.3,144.6,200.32,144.31Z"/><polygon class="e" points="252.57 159.59 213.88 178.57 175.23 159.95 175.23 167.79 213.91 186.43 252.57 167.45 252.57 159.59"/><path class="n" d="M228.45,203.53l-49.68-49.68c-1.38-1.38-4.69-.32-7.38,2.38s-3.76,6-2.38,7.38l39.92,39.92Z"/><path class="o" d="M175.14,156.23a11.59,11.59,0,0,1,3.53-2.47c-1.44-1.24-4.64-.16-7.28,2.47s-3.76,6-2.38,7.38l39.92,39.92h3.75l-39.92-39.92C171.38,162.23,172.44,158.93,175.14,156.23Z"/><path class="p" d="M172.22,156.24l-.08.06-.12.13-.22.21c-2.16,2.16-2.93,4.77-1.76,5.95s3.79.4,5.95-1.76,2.93-4.77,1.76-5.95S174.28,154.39,172.22,156.24Zm3.27,4.09c-1.82,1.82-4.09,2.62-5,1.76-.53-.53-.43-1.59.14-2.75a1.33,1.33,0,0,0,.37.85c.78.78,2.49.3,3.89-1.09a.35.35,0,0,0-.5-.5c-1.18,1.18-2.47,1.52-2.9,1.09s-.11-1.62,1-2.76c1.78-1.68,3.91-2.39,4.75-1.56S177.31,158.51,175.49,160.33Z"/><rect class="l" x="252.57" y="85.27" width="113.98" height="70.29" rx="10.15" ry="10.15"/><rect class="l" x="252.57" y="85.27" width="113.98" height="70.29" rx="10.15" ry="10.15"/><path class="d" d="M370.09,68.91H279.7a10.18,10.18,0,0,0-10.15,10.15v2.25h86.67a14.51,14.51,0,0,1,14.46,14.46V139.2h2.7a10.18,10.18,0,0,0,10.15-10.15V82.36A13.49,13.49,0,0,0,370.09,68.91Z"/><rect class="c" x="262.58" y="95.96" width="19.46" height="27.5" rx="4.06" ry="4.06"/><rect class="c" x="329.01" y="95.96" width="29.21" height="4.68" rx="2.34" ry="2.34"/><rect class="c" x="329.01" y="107.37" width="29.21" height="4.68" rx="2.34" ry="2.34"/><rect class="c" x="329.01" y="118.78" width="29.21" height="4.68" rx="2.34" ry="2.34"/><rect class="c" x="290.66" y="95.96" width="29.21" height="4.68" rx="2.34" ry="2.34"/><rect class="c" x="290.66" y="107.37" width="29.21" height="4.68" rx="2.34" ry="2.34"/><rect class="c" x="290.66" y="118.78" width="29.21" height="4.68" rx="2.34" ry="2.34"/><path class="q" d="M224.31,134.81h88.18a9.55,9.55,0,0,1,9.55,9.55V201a0,0,0,0,1,0,0H214.76a0,0,0,0,1,0,0V144.36A9.55,9.55,0,0,1,224.31,134.81Z"/><circle class="l" cx="269.24" cy="169.57" r="8.08"/><rect class="l" x="159.31" y="200.87" width="204.79" height="7.62" rx="3.81" ry="3.81"/><path class="r" d="M376.9,66"/><rect class="d" x="374.56" y="52.07" width="1.81" height="10.89" rx="0.91" ry="0.91"/><rect class="d" x="393.89" y="73.44" width="1.81" height="10.89" rx="0.91" ry="0.91" transform="translate(315.92 473.68) rotate(-90)"/><rect class="d" x="388.45" y="60.31" width="1.81" height="10.89" rx="0.91" ry="0.91" transform="translate(160.53 -256.06) rotate(45)"/><path class="d" d="M134,63.22v2.14a.81.81,0,0,0,.81.81h2a.81.81,0,0,1,.81.81h0a.81.81,0,0,1-.81.81h-2a.81.81,0,0,0-.81.81v2.17a.81.81,0,0,1-.81.81h-.07a.81.81,0,0,1-.81-.81V68.6a.81.81,0,0,0-.81-.81h-2a.81.81,0,0,1-.81-.81h0a.81.81,0,0,1,.81-.81h2a.81.81,0,0,0,.81-.81V63.22a.81.81,0,0,1,.81-.81h.07A.81.81,0,0,1,134,63.22Z"/><path class="c" d="M69.56,172.62v2.14a.81.81,0,0,0,.81.81h2a.81.81,0,0,1,.81.81h0a.81.81,0,0,1-.81.81h-2a.81.81,0,0,0-.81.81v2.17a.81.81,0,0,1-.81.81h-.07a.81.81,0,0,1-.81-.81V178a.81.81,0,0,0-.81-.81h-2a.81.81,0,0,1-.81-.81h0a.81.81,0,0,1,.81-.81h2a.81.81,0,0,0,.81-.81v-2.14a.81.81,0,0,1,.81-.81h.07A.81.81,0,0,1,69.56,172.62Z"/><path class="c" d="M456.92,149.92v3.19a1.21,1.21,0,0,0,1.21,1.21h3a1.21,1.21,0,0,1,1.21,1.21h0a1.21,1.21,0,0,1-1.21,1.21h-3a1.21,1.21,0,0,0-1.21,1.21v3.24a1.21,1.21,0,0,1-1.21,1.21h-.1a1.21,1.21,0,0,1-1.21-1.21V158a1.21,1.21,0,0,0-1.21-1.21h-3a1.21,1.21,0,0,1-1.21-1.21h0a1.21,1.21,0,0,1,1.21-1.21h3a1.21,1.21,0,0,0,1.21-1.21v-3.19a1.21,1.21,0,0,1,1.21-1.21h.1A1.21,1.21,0,0,1,456.92,149.92Z"/><path class="s" d="M341.29,167a3.44,3.44,0,0,1,0-4.86l.25-.25a3.44,3.44,0,0,0,0-4.86h0a3.44,3.44,0,0,1,0-4.86"/><path class="s" d="M344.77,172.1a2.63,2.63,0,0,0,0-3.72l-.19-.19a2.63,2.63,0,0,1,0-3.72h0a2.63,2.63,0,0,0,0-3.72"/><path class="e" d="M334.16,175.55h18.91a3.2,3.2,0,0,1,3.2,3.2v15.67a6.44,6.44,0,0,1-6.44,6.44H337.4a6.44,6.44,0,0,1-6.44-6.44V178.75A3.2,3.2,0,0,1,334.16,175.55Z"/><path class="t" d="M353.38,175.58a3.21,3.21,0,0,1,.06.62v17.43a4.68,4.68,0,0,1-4.68,4.68H334.57a6.41,6.41,0,0,1-2.7-.6,6.43,6.43,0,0,0,5.53,3.15h12.43a6.44,6.44,0,0,0,6.44-6.44V178.75A3.19,3.19,0,0,0,353.38,175.58Z"/><path class="f" d="M312.49,134.81H224.31a9.58,9.58,0,0,0-9.55,9.55v56.5h6V147a5.2,5.2,0,0,1,5.19-5.19h92.55a9.44,9.44,0,0,1,3.32.61A9.59,9.59,0,0,0,312.49,134.81Z"/><circle class="e" cx="213.9" cy="76.28" r="3.41"/><path class="f" d="M212.87,76.28a3.41,3.41,0,0,1,2.22-3.19,3.41,3.41,0,1,0,0,6.38A3.41,3.41,0,0,1,212.87,76.28Z"/><path class="m" d="M197.18,88.42a25.36,25.36,0,0,1,16.75,6.33V80.08H195.22v8.33Z"/><path class="g" d="M230.69,88.42a25.36,25.36,0,0,0-16.75,6.33V80.08h18.72v8.33Z"/><path class="e" d="M176.25,94.42a3.08,3.08,0,0,1-1.33-2.5V75.61h-1v16.1a3.1,3.1,0,0,1-1.51,2.61,3.38,3.38,0,0,0-1.59,2.87v20.65a.48.48,0,0,0,1,0V99.56h0a3.22,3.22,0,0,1,1,2.23v15.71h0v.33a.48.48,0,0,0,1,0V100.56a2.48,2.48,0,0,0,1,0v17.28a.48.48,0,0,0,1,0v-.33h0V101.8a3.22,3.22,0,0,1,1-2.23h0v17.95h0v.33a.48.48,0,0,0,1,0V97.2A3.4,3.4,0,0,0,176.25,94.42Z"/><rect class="f" x="195.22" y="80.08" width="3.21" height="8.36"/><path class="m" d="M256.87,75.65h-86.2a2.22,2.22,0,1,0,0,4.44h86.2a2.22,2.22,0,0,0,0-4.44Z"/><path class="f" d="M169.73,77.87a2.22,2.22,0,0,1,2.22-2.22h-1.27a2.22,2.22,0,1,0,0,4.44h1.27A2.22,2.22,0,0,1,169.73,77.87Z"/></g></svg>