
<svg width="1920px" height="1080px" viewBox="2091 48 1920 1080" version="1.1" xmlns="http://www.w3.org/2000/svg" xmlns:xlink="http://www.w3.org/1999/xlink">
	<!-- Generator: Sketch 42 (36781) - http://www.bohemiancoding.com/sketch -->
	<desc>Created with Sketch.</desc>
	<defs>
		<path d="M12.4057404,5.390073e-16 C17.9518373,1.80374388e-15 22.4478372,5.58478161 22.4478372,12.4637658 L22.4478372,216.336234 C22.4478372,223.219782 17.952402,228.8 12.4057404,228.8 L10.0420967,228.8 C4.49599984,228.8 0,223.215218 0,216.336234 L0,12.4637658 C0,5.58021803 4.49543519,-1.26486535e-15 10.0420967,0 L12.4057404,5.390073e-16 Z" id="path-1"></path>
		<mask id="mask-2" maskContentUnits="userSpaceOnUse" maskUnits="objectBoundingBox" x="-6" y="-6" width="34.4478372" height="240.8">
			<rect x="-6" y="-6" width="34.4478372" height="240.8" fill="white"></rect>
			<use xlink:href="#path-1" fill="black"></use>
		</mask>
		<path d="M12.4057404,2.18552894e-14 C17.9518373,2.3120026e-14 22.4478372,5.58478161 22.4478372,12.4637658 L22.4478372,216.336234 C22.4478372,223.219782 17.952402,228.8 12.4057404,228.8 L10.0420967,228.8 C4.49599984,228.8 1.42108547e-14,223.215218 1.42108547e-14,216.336234 L1.42108547e-14,12.4637658 C1.42108547e-14,5.58021803 4.49543519,2.00514167e-14 10.0420967,2.13162821e-14 L12.4057404,2.18552894e-14 Z" id="path-3"></path>
		<mask id="mask-4" maskContentUnits="userSpaceOnUse" maskUnits="objectBoundingBox" x="-6" y="-6" width="34.4478372" height="240.8">
			<rect x="-6" y="-6" width="34.4478372" height="240.8" fill="white"></rect>
			<use xlink:href="#path-3" fill="black"></use>
		</mask>
		<path d="M12.4057404,2.89607167e-14 C17.9518373,3.02254533e-14 22.4478372,5.58478161 22.4478372,12.4637658 L22.4478372,216.336234 C22.4478372,223.219782 17.952402,228.8 12.4057404,228.8 L10.0420967,228.8 C4.49599984,228.8 0,223.215218 0,216.336234 L0,12.4637658 C0,5.58021803 4.49543519,2.71568441e-14 10.0420967,2.84217094e-14 L12.4057404,2.89607167e-14 Z" id="path-5"></path>
		<mask id="mask-6" maskContentUnits="userSpaceOnUse" maskUnits="objectBoundingBox" x="-6" y="-6" width="34.4478372" height="240.8">
			<rect x="-6" y="-6" width="34.4478372" height="240.8" fill="white"></rect>
			<use xlink:href="#path-5" fill="black"></use>
		</mask>
		<rect id="path-7" x="0" y="16.1444867" width="582" height="353.711027"></rect>
		<mask id="mask-8" maskContentUnits="userSpaceOnUse" maskUnits="objectBoundingBox" x="-6" y="-6" width="594" height="365.711027">
			<rect x="-6" y="10.1444867" width="594" height="365.711027" fill="white"></rect>
			<use xlink:href="#path-7" fill="black"></use>
		</mask>
		<rect id="path-9" x="0" y="0" width="582" height="31.5551331" rx="14"></rect>
		<mask id="mask-10" maskContentUnits="userSpaceOnUse" maskUnits="objectBoundingBox" x="-6" y="-6" width="594" height="43.5551331">
			<rect x="-6" y="-6" width="594" height="43.5551331" fill="white"></rect>
			<use xlink:href="#path-9" fill="black"></use>
		</mask>
		<rect id="path-11" x="0" y="0.44486692" width="582" height="31.5551331" rx="14"></rect>
		<mask id="mask-12" maskContentUnits="userSpaceOnUse" maskUnits="objectBoundingBox" x="-6" y="-6" width="594" height="43.5551331">
			<rect x="-6" y="-5.55513308" width="594" height="43.5551331" fill="white"></rect>
			<use xlink:href="#path-11" fill="black"></use>
		</mask>
		<path d="M195.870462,189.047989 C196.968801,188.196271 203.794694,188.236879 214.030899,188.053858 C222.093199,187.909706 231.201945,187.996746 232.128333,189.047989 C234.075789,191.257914 257.061797,265.80962 257.061797,271.401365 C257.061797,273.353765 234.926234,274.928736 213.068844,274.928736 C191.211454,274.928736 171,273.598643 171,271.401365 C171,268.662419 193.365523,190.990468 195.870462,189.047989 Z" id="path-13"></path>
		<mask id="mask-14" maskContentUnits="userSpaceOnUse" maskUnits="objectBoundingBox" x="-6" y="-6" width="98.061797" height="98.9287365">
			<rect x="165" y="182" width="98.061797" height="98.9287365" fill="white"></rect>
			<use xlink:href="#path-13" fill="black"></use>
		</mask>
		<path d="M195,144.005059 C195,139.583987 198.57772,136 203.000039,136 L224.668455,136 C229.086754,136 232.668494,139.573468 232.668494,144.005059 L232.668494,188.896183 L195,188.896183 L195,144.005059 Z" id="path-15"></path>
		<mask id="mask-16" maskContentUnits="userSpaceOnUse" maskUnits="objectBoundingBox" x="-6" y="-6" width="49.6684941" height="64.8961832">
			<rect x="189" y="130" width="49.6684941" height="64.8961832" fill="white"></rect>
			<use xlink:href="#path-15" fill="black"></use>
		</mask>
		<path d="M195.870462,228.047989 C196.968801,227.196271 203.794694,227.236879 214.030899,227.053858 C222.093199,226.909706 231.201945,226.996746 232.128333,228.047989 C234.075789,230.257914 257.061797,304.80962 257.061797,310.401365 C257.061797,312.353765 234.926234,313.928736 213.068844,313.928736 C191.211454,313.928736 171,312.598643 171,310.401365 C171,307.662419 193.365523,229.990468 195.870462,228.047989 Z" id="path-17"></path>
		<mask id="mask-18" maskContentUnits="userSpaceOnUse" maskUnits="objectBoundingBox" x="-6" y="-6" width="98.061797" height="98.9287365">
			<rect x="165" y="221" width="98.061797" height="98.9287365" fill="white"></rect>
			<use xlink:href="#path-17" fill="black"></use>
		</mask>
		<path d="M195,183.005059 C195,178.583987 198.57772,175 203.000039,175 L224.668455,175 C229.086754,175 232.668494,178.573468 232.668494,183.005059 L232.668494,227.896183 L195,227.896183 L195,183.005059 Z" id="path-19"></path>
		<mask id="mask-20" maskContentUnits="userSpaceOnUse" maskUnits="objectBoundingBox" x="-6" y="-6" width="49.6684941" height="64.8961832">
			<rect x="189" y="169" width="49.6684941" height="64.8961832" fill="white"></rect>
			<use xlink:href="#path-19" fill="black"></use>
		</mask>
	</defs>
	<g id="HD-Screen" stroke="none" stroke-width="1" fill="none" fill-rule="evenodd" transform="translate(2091.000000, 48.000000)">
		<rect id="Background" fill="#59A7C5" x="0" y="0" width="1920" height="1080"></rect>
		<g id="Education-Board" transform="translate(664.000000, 420.000000)">
			<g id="Legs" transform="translate(4.000000, 315.000000)">
				<g id="Left-Leg" transform="translate(283.000000, 0.000000)">
					<g id="Rectangle-3">
						<use fill="#D1D1D1" fill-rule="evenodd" xlink:href="#path-1"></use>
						<use stroke="#000000" mask="url(#mask-2)" stroke-width="12" xlink:href="#path-1"></use>
					</g>
					<path d="M18.4478372,2.5089261 C20.8773756,4.78462993 22.4478372,8.39816412 22.4478372,12.4637658 L22.4478372,216.336234 C22.4478372,223.219782 17.952402,228.8 12.4057404,228.8 L10.0420967,228.8 C7.0421717,228.8 4.34948496,227.166 2.50938218,224.577023 C3.16303418,224.723511 3.83628184,224.8 4.52391169,224.8 L7.17681252,224.8 C13.4022613,224.8 18.4478372,218.536888 18.4478372,210.810948 L18.4478372,2.5089261 L18.4478372,2.5089261 Z" id="Combined-Shape" fill-opacity="0.0905230978" fill="#000000"></path>
				</g>
				<g id="Center-Leg" transform="translate(67.500000, 125.500000) rotate(-330.000000) translate(-67.500000, -125.500000) translate(56.000000, 11.000000)">
					<g id="Rectangle-3">
						<use fill="#D1D1D1" fill-rule="evenodd" xlink:href="#path-3"></use>
						<use stroke="#000000" mask="url(#mask-4)" stroke-width="12" xlink:href="#path-3"></use>
					</g>
					<path d="M18.4478372,2.5089261 C20.8773756,4.78462993 22.4478372,8.39816412 22.4478372,12.4637658 L22.4478372,216.336234 C22.4478372,223.219782 17.952402,228.8 12.4057404,228.8 L10.0420967,228.8 C7.0421717,228.8 4.34948496,227.166 2.50938218,224.577023 C3.16303418,224.723511 3.83628184,224.8 4.52391169,224.8 L7.17681252,224.8 C13.4022613,224.8 18.4478372,218.536888 18.4478372,210.810948 L18.4478372,2.5089261 L18.4478372,2.5089261 Z" id="Combined-Shape" fill-opacity="0.0905230978" fill="#000000"></path>
				</g>
				<g id="Right-Leg" transform="translate(521.500000, 125.500000) scale(-1, 1) rotate(-330.000000) translate(-521.500000, -125.500000) translate(510.000000, 11.000000)">
					<g id="Rectangle-3">
						<use fill="#D1D1D1" fill-rule="evenodd" xlink:href="#path-5"></use>
						<use stroke="#000000" mask="url(#mask-6)" stroke-width="12" xlink:href="#path-5"></use>
					</g>
					<path d="M18.4478372,2.5089261 C20.8773756,4.78462993 22.4478372,8.39816412 22.4478372,12.4637658 L22.4478372,216.336234 C22.4478372,223.219782 17.952402,228.8 12.4057404,228.8 L10.0420967,228.8 C7.0421717,228.8 4.34948496,227.166 2.50938218,224.577023 C3.16303418,224.723511 3.83628184,224.8 4.52391169,224.8 L7.17681252,224.8 C13.4022613,224.8 18.4478372,218.536888 18.4478372,210.810948 L18.4478372,2.5089261 L18.4478372,2.5089261 Z" id="Combined-Shape" fill-opacity="0.0905230978" fill="#000000"></path>
				</g>
			</g>
			<g id="Main-Board">
				<g id="Rectangle-2">
					<use fill="#FFFFFF" fill-rule="evenodd" xlink:href="#path-7"></use>
					<use stroke="#121212" mask="url(#mask-8)" stroke-width="12" xlink:href="#path-7"></use>
				</g>
				<g id="Top">
					<g id="Top-Bar">
						<use fill="#D6254D" fill-rule="evenodd" xlink:href="#path-9"></use>
						<use stroke="#000000" mask="url(#mask-10)" stroke-width="12" xlink:href="#path-9"></use>
					</g>
					<path d="M573.89204,30.2608984 C572.103652,31.0915095 570.110519,31.5551331 568.009222,31.5551331 L13.9907785,31.5551331 C12.2965948,31.5551331 10.6727439,31.253612 9.16983006,30.7013198 C9.05803668,29.9890972 9,29.259034 9,28.5154039 L9,22.9915931 C9,15.2642496 15.2726723,9 23.0015485,9 L559.998451,9 C567.731293,9 574,15.2631033 574,22.9915931 L574,28.5154039 C574,29.1065132 573.963295,29.6890611 573.89204,30.2608984 L573.89204,30.2608984 Z" id="Combined-Shape" fill-opacity="0.152655118" fill="#000000"></path>
				</g>
				<g id="Bottom" transform="translate(0.000000, 354.000000)">
					<g id="Bottom-Bar">
						<use fill="#D6254D" fill-rule="evenodd" xlink:href="#path-11"></use>
						<use stroke="#000000" mask="url(#mask-12)" stroke-width="12" xlink:href="#path-11"></use>
					</g>
					<path d="M573.89204,30.2608984 C572.103652,31.0915095 570.110519,31.5551331 568.009222,31.5551331 L13.9907785,31.5551331 C12.2965948,31.5551331 10.6727439,31.253612 9.16983006,30.7013198 C9.05803668,29.9890972 9,29.259034 9,28.5154039 L9,22.9915931 C9,15.2642496 15.2726723,9 23.0015485,9 L559.998451,9 C567.731293,9 574,15.2631033 574,22.9915931 L574,28.5154039 C574,29.1065132 573.963295,29.6890611 573.89204,30.2608984 L573.89204,30.2608984 Z" id="Combined-Shape-Copy" fill-opacity="0.146201313" fill="#000000"></path>
				</g>
				<g id="Board-Contents" transform="translate(41.099622, 101.269962)" fill-rule="nonzero" fill="#000000">
					<path d="M174.781455,57.6269264 L91.3474437,107.275827 C90.0056759,108.074091 88.3373253,108.074091 86.9955576,107.275827 L3.56154636,57.6269264 C2.26373813,56.8548444 1.46784363,55.4522655 1.46784363,53.9372624 C1.46784363,52.4222592 2.26373813,51.0196803 3.56154636,50.2475983 L87.0005454,0.598697467 C88.3423132,-0.199565822 90.0106638,-0.199565822 91.3524315,0.598697467 L174.781455,50.2475983 C176.079263,51.0196803 176.875158,52.4222592 176.875158,53.9372624 C176.875158,55.4522655 176.079263,56.8548444 174.781455,57.6269264 L174.781455,57.6269264 Z" id="Shape"></path>
					<path d="M173.313611,98.7219834 L89.8796001,148.370884 C88.5378323,149.169148 86.8694817,149.169148 85.5277139,148.370884 L2.09370273,98.7219834 C0.795894498,97.9499014 0,96.5473225 0,95.0323194 C0,93.5173163 0.795894498,92.1147374 2.09370273,91.3426554 L85.5327018,41.6937545 C86.8744695,40.8954912 88.5428201,40.8954912 89.8845879,41.6937545 L173.313611,91.3426554 C174.611419,92.1147374 175.407314,93.5173163 175.407314,95.0323194 C175.407314,96.5473225 174.611419,97.9499014 173.313611,98.7219834 Z" id="Shape" opacity="0.5"></path>
					<path d="M173.313611,134.680158 L89.8796001,184.329059 C88.5378323,185.127322 86.8694817,185.127322 85.5277139,184.329059 L2.09370273,134.680158 C0.795894498,133.908076 0,132.505497 0,130.990494 C0,129.475491 0.795894498,128.072912 2.09370273,127.30083 L85.5327018,77.6519294 C86.8744695,76.8536661 88.5428201,76.8536661 89.8845879,77.6519294 L173.313611,127.30083 C174.611419,128.072912 175.407314,129.475491 175.407314,130.990494 C175.407314,132.505497 174.611419,133.908076 173.313611,134.680158 Z" id="Shape" opacity="0.2"></path>
				</g>
				<g id="Writing" transform="translate(271.551072, 89.528517)" stroke="#000000" stroke-width="11" stroke-linecap="square" opacity="0.34839221">
					<path d="M0.613232451,3.66920152 L275.672426,3.66920152" id="Line"></path>
					<path d="M0.613232451,24.9505703 L275.672426,24.9505703" id="Line"></path>
					<path d="M0.613232451,46.2319392 L275.672426,46.2319392" id="Line"></path>
					<path d="M0.613232451,68.2471483 L275.672426,68.2471483" id="Line-Copy-3"></path>
					<path d="M0.613232451,89.5285171 L275.672426,89.5285171" id="Line-Copy-2"></path>
					<path d="M0.613232451,110.809886 L275.672426,110.809886" id="Line-Copy"></path>
					<path d="M0.613232451,132.091255 L275.672426,132.091255" id="Line-Copy-6"></path>
					<path d="M0.613232451,153.372624 L275.672426,153.372624" id="Line-Copy-5"></path>
					<path d="M0.613232451,175.387833 L275.672426,175.387833" id="Line-Copy-4"></path>
				</g>
			</g>
		</g>
		<g id="Light" transform="translate(330.500000, 469.500000) scale(-1, 1) translate(-330.500000, -469.500000) translate(115.000000, -27.000000)">
			<polygon id="Lighting" fill-opacity="0.152541893" fill="#FFFFFF" points="247.644988 280 431 993 0 993 183.355012 280 247.644988 280"></polygon>
			<path d="M214,142.079177 L214,0.826445405" id="Line" stroke="#000000" stroke-width="6" stroke-linecap="square"></path>
			<g id="Path-2">
				<use fill="#363636" fill-rule="evenodd" xlink:href="#path-13"></use>
				<use stroke="#000000" mask="url(#mask-14)" stroke-width="12" stroke-linejoin="round" xlink:href="#path-13"></use>
			</g>
			<path d="M213.000983,274.928732 C191.169638,274.925982 171,273.596369 171,271.401365 C171,270.55302 173.145641,262.515961 176.1822,251.767036 C192.600503,256.297343 205.79527,264.598086 213.000978,274.928725 L213.000983,274.928732 Z" id="Combined-Shape" fill-opacity="0.06" fill="#FFFFFF"></path>
			<path d="M248.216558,273.450311 C239.75972,274.346115 226.36283,274.928736 213.068844,274.928736 C191.211454,274.928736 171,273.598643 171,271.401365 C171,269.341816 183.646087,224.91307 190.984861,202.172738 C220.058831,204.701123 243.688942,234.702164 248.216558,273.450311 L248.216558,273.450311 Z" id="Combined-Shape" fill-opacity="0.08" fill="#FFFFFF"></path>
			<g id="Rectangle-4">
				<use fill="#DEC059" fill-rule="evenodd" xlink:href="#path-15"></use>
				<use stroke="#000000" mask="url(#mask-16)" stroke-width="12" xlink:href="#path-15"></use>
			</g>
			<path d="M207.35512,136 L203.000039,136 C198.57772,136 195,139.583987 195,144.005059 L195,188.896183 L230.011729,188.896183 C225.908521,166.906616 217.831088,148.309266 207.35512,136 L207.35512,136 Z" id="Combined-Shape" fill-opacity="0.2" fill="#FFFFFF"></path>
		</g>
		<g id="Light-Copy" transform="translate(1375.000000, -66.000000)">
			<polygon id="Lighting" fill-opacity="0.184159873" fill="#FFFFFF" points="247.644988 319 431 1032 0 1032 183.355012 319 247.644988 319"></polygon>
			<path d="M214,181.079177 L214,0.975012726" id="Line" stroke="#000000" stroke-width="6" stroke-linecap="square"></path>
			<g id="Path-2">
				<use fill="#363636" fill-rule="evenodd" xlink:href="#path-17"></use>
				<use stroke="#000000" mask="url(#mask-18)" stroke-width="12" stroke-linejoin="round" xlink:href="#path-17"></use>
			</g>
			<path d="M213.000983,313.928732 C191.169638,313.925982 171,312.596369 171,310.401365 C171,309.55302 173.145641,301.515961 176.1822,290.767036 C192.600503,295.297343 205.79527,303.598086 213.000978,313.928725 L213.000983,313.928732 Z" id="Combined-Shape" fill-opacity="0.06" fill="#FFFFFF"></path>
			<path d="M248.216558,312.450311 C239.75972,313.346115 226.36283,313.928736 213.068844,313.928736 C191.211454,313.928736 171,312.598643 171,310.401365 C171,308.341816 183.646087,263.91307 190.984861,241.172738 C220.058831,243.701123 243.688942,273.702164 248.216558,312.450311 L248.216558,312.450311 Z" id="Combined-Shape" fill-opacity="0.08" fill="#FFFFFF"></path>
			<g id="Rectangle-4">
				<use fill="#DEC059" fill-rule="evenodd" xlink:href="#path-19"></use>
				<use stroke="#000000" mask="url(#mask-20)" stroke-width="12" xlink:href="#path-19"></use>
			</g>
			<path d="M207.35512,175 L203.000039,175 C198.57772,175 195,178.583987 195,183.005059 L195,227.896183 L230.011729,227.896183 C225.908521,205.906616 217.831088,187.309266 207.35512,175 Z" id="Combined-Shape" fill-opacity="0.2" fill="#FFFFFF"></path>
		</g>
		<text id="12-Powerful-Tips-For" font-family="HelveticaNeue, Helvetica Neue" font-size="68" font-weight="normal" letter-spacing="1" fill="#FFFFFF">
			<tspan x="636.34" y="186">12 Powerful Tips For</tspan>
			<tspan x="596.274" y="265">SiteOrigin Page Builde</tspan>
			<tspan x="1302.082" y="265">r</tspan>
		</text>
	</g>
</svg>
