<svg width="1280px" height="720px" viewBox="106 -34 1280 720" version="1.1" xmlns="http://www.w3.org/2000/svg" xmlns:xlink="http://www.w3.org/1999/xlink">
	<defs>
		<linearGradient x1="50%" y1="0%" x2="50%" y2="100%" id="linearGradient-1">
			<stop stop-color="#2D7BC4" offset="0%"></stop>
			<stop stop-color="#1D69AE" offset="100%"></stop>
		</linearGradient>
		<linearGradient x1="50%" y1="0%" x2="50%" y2="100%" id="linearGradient-2">
			<stop stop-color="#56B6EE" offset="0%"></stop>
			<stop stop-color="#56B6EE" offset="100%"></stop>
		</linearGradient>
		<path d="M48.3379345,0 L166.864267,0 C193.560662,0 214.703452,21.708675 214.703452,48.465 L214.703452,166.725 C214.703452,193.481325 193.560662,215.692875 166.864267,215.692875 L48.3379345,215.692875 C35.5132703,215.688221 23.2157169,210.581479 14.1505962,201.496072 C5.08547553,192.410666 -0.00464493601,180.090825 3.43025921e-06,167.246775 L3.43025921e-06,48.446775 C-0.0048237309,35.6026078 5.08521779,23.2825937 14.1503579,14.1970413 C23.215498,5.111489 35.5131535,0.00465368236 48.3379345,0 Z" id="path-3"></path>
		<filter x="-50%" y="-50%" width="200%" height="200%" filterUnits="objectBoundingBox" id="filter-4">
			<feMorphology radius="1" operator="dilate" in="SourceAlpha" result="shadowSpreadOuter1"></feMorphology>
			<feOffset dx="0" dy="2" in="shadowSpreadOuter1" result="shadowOffsetOuter1"></feOffset>
			<feGaussianBlur stdDeviation="1.5" in="shadowOffsetOuter1" result="shadowBlurOuter1"></feGaussianBlur>
			<feColorMatrix values="0 0 0 0 0   0 0 0 0 0   0 0 0 0 0  0 0 0 0.07 0" type="matrix" in="shadowBlurOuter1"></feColorMatrix>
		</filter>
	</defs>
	<g id="Artboard" stroke="none" stroke-width="1" fill="none" fill-rule="evenodd" transform="translate(106.000000, -34.000000)">
		<rect id="Rectangle" fill="url(#linearGradient-1)" x="0" y="0" width="1280" height="720"></rect>
		<g id="Main-Icon" transform="translate(533.000000, 252.000000)">
			<g id="Icon-Wrapper">
				<use fill="black" fill-opacity="1" filter="url(#filter-4)" xlink:href="#path-3"></use>
				<use fill="url(#linearGradient-2)" fill-rule="evenodd" xlink:href="#path-3"></use>
			</g>
			<g id="Icon-Shape" transform="translate(44.959638, 42.166620)" fill-rule="nonzero" fill="#FFFFFF">
				<path d="M123.487795,40.6558054 L64.5452331,75.6816114 C63.5973315,76.2447621 62.4187131,76.2447621 61.4708116,75.6816114 L2.5282492,40.6558054 C1.61140316,40.1111247 1.04913772,39.1216475 1.04913772,38.0528584 C1.04913772,36.9840693 1.61140316,35.994592 2.5282492,35.4499114 L61.4743353,0.424105415 C62.4222368,-0.139045322 63.6008552,-0.139045322 64.5487568,0.424105415 L123.487795,35.4499114 C124.404641,35.994592 124.966907,36.9840693 124.966907,38.0528584 C124.966907,39.1216475 124.404641,40.1111247 123.487795,40.6558054 L123.487795,40.6558054 Z" id="Shape"></path>
				<path d="M122.606872,69.4596315 L63.66431,104.485437 C62.7164084,105.048588 61.5377901,105.048588 60.5898885,104.485437 L1.64732613,69.4596315 C0.730480097,68.9149509 0.168214657,67.9254736 0.168214657,66.8566845 C0.168214657,65.7878954 0.730480097,64.7984182 1.64732613,64.2537375 L60.5934122,29.2279315 C61.5413138,28.6647808 62.7199321,28.6647808 63.6678337,29.2279315 L122.606872,64.2537375 C123.523718,64.7984182 124.085984,65.7878954 124.085984,66.8566845 C124.085984,67.9254736 123.523718,68.9149509 122.606872,69.4596315 Z" id="Shape" opacity="0.5"></path>
				<path d="M122.606872,95.4360882 L63.66431,130.461894 C62.7164084,131.025045 61.5377901,131.025045 60.5898885,130.461894 L1.64732613,95.4360882 C0.730480097,94.8914076 0.168214657,93.9019303 0.168214657,92.8331412 C0.168214657,91.7643521 0.730480097,90.7748749 1.64732613,90.2301942 L60.5934122,55.2043882 C61.5413138,54.6412375 62.7199321,54.6412375 63.6678337,55.2043882 L122.606872,90.2301942 C123.523718,90.7748749 124.085984,91.7643521 124.085984,92.8331412 C124.085984,93.9019303 123.523718,94.8914076 122.606872,95.4360882 Z" id="Shape" opacity="0.2"></path>
			</g>
		</g>
		<text id="Get-The-Most-Out-of" font-family="HelveticaNeue-Light, Helvetica Neue" font-size="58" font-weight="300" fill="#FFFFFF">
			<tspan x="217.035" y="146">Get The Most Out of Page Builder</tspan>
		</text>
		<g id="clouds" transform="translate(-257.000000, 577.000000)" fill-rule="nonzero" fill="#FFFFFF" opacity="0.0978781703">
			<path d="M173,0 C268.5,0 346,77.5 346,173 C346,268.5 268.5,346 173,346 C77.5,346 0,268.5 0,173 C0,77.5 77.5,0 173,0 Z M337.5,48 C388,48 429,89 429,139.5 C429,190 388,231 337.5,231 C287,231 246,190 246,139.5 C246,89 287,48 337.5,48 Z M494.5,72 C552.2,72 599,118.8 599,176.5 C599,234.2 552.2,281 494.5,281 C436.8,281 390,234.2 390,176.5 C390,118.8 436.8,72 494.5,72 Z M673.5,11 C741.7,11 797,66.3 797,134.5 C797,202.7 741.7,258 673.5,258 C605.3,258 550,202.7 550,134.5 C550,66.3 605.3,11 673.5,11 Z M1080,35 C1135.8,35 1181,80.2 1181,136 C1181,191.8 1135.8,237 1080,237 C1024.2,237 979,191.8 979,136 C979,80.2 1024.2,35 1080,35 Z M1178,71 C1208.4,71 1233,95.6 1233,126 C1233,156.4 1208.4,181 1178,181 C1147.6,181 1123,156.4 1123,126 C1123,95.6 1147.6,71 1178,71 Z M1310.5,25 C1368.2,25 1415,71.8 1415,129.5 C1415,187.2 1368.2,234 1310.5,234 C1252.8,234 1206,187.2 1206,129.5 C1206,71.8 1252.8,25 1310.5,25 Z M1421.5,87 C1453.8,87 1480,113.2 1480,145.5 C1480,177.8 1453.8,204 1421.5,204 C1389.2,204 1363,177.8 1363,145.5 C1363,113.2 1389.2,87 1421.5,87 Z M1497.5,82 C1522.6,82 1543,102.4 1543,127.5 C1543,152.6 1522.6,173 1497.5,173 C1472.4,173 1452,152.6 1452,127.5 C1452,102.4 1472.4,82 1497.5,82 Z M1568,55 C1597.3,55 1621,78.7 1621,108 C1621,137.3 1597.3,161 1568,161 C1538.7,161 1515,137.3 1515,108 C1515,78.7 1538.7,55 1568,55 Z M1693,26 C1748.2,26 1793,70.8 1793,126 C1793,181.2 1748.2,226 1693,226 C1637.8,226 1593,181.2 1593,126 C1593,70.8 1637.8,26 1693,26 Z" id="Shape"></path>
		</g>
	</g>
</svg>
