<?xml version="1.0" encoding="UTF-8" standalone="no"?>
<svg xmlns="http://www.w3.org/2000/svg" height="1.08e3px" width="1.92e3px" version="1.1" xmlns:xlink="http://www.w3.org/1999/xlink" viewBox="2091 48 1920 1080">
	<desc>Created with Sketch.</desc>
	<defs>
		<path id="k" d="m24.9 0.868c1.1-0.705 7.9-0.672 18.1-0.823 8.1-0.12 17.2-0.0477 18.1 0.823 1.9 1.83 24.9 63.5 24.9 68.2 0 1.6-22.1 2.9-44 2.9-21.8 0-42-1.1-42-2.9 5.7e-14 -2.3 22.3-66.6 24.9-68.2z"/>
		<mask id="t" maskContentUnits="userSpaceOnUse" height="84" width="98" y="-6" x="-6" maskUnits="objectBoundingBox">
			<rect y="-6" x="-6" height="84" fill="#fff" width="98"/>
			<use xlink:href="#k" fill="black"/>
		</mask>
		<path id="b" d="m5.68e-14 8.01c0-4.43 3.58-8.01 8-8.01l21.7 5.68e-14c4.4 0 8 3.57 8 8.01v44.9h-37.7l5.68e-14 -44.9z"/>
		<mask id="p" maskContentUnits="userSpaceOnUse" height="64.8961832" width="49.6684941" y="-6" x="-6" maskUnits="objectBoundingBox">
			<rect y="-6" x="-6" height="64.9" fill="#fff" width="49.7"/>
			<use xlink:href="#b" fill="black"/>
		</mask>
		<path id="a" d="m24.9 0.868c1.1-0.705 7.9-0.672 18.1-0.823 8.1-0.12 17.2-0.0477 18.1 0.823 1.9 1.83 24.9 63.5 24.9 68.2 0 1.6-22.1 2.9-44 2.9-21.8 0-42-1.1-42-2.9 1.66e-16 -2.3 22.3-66.6 24.9-68.2z"/>
		<mask id="o" maskContentUnits="userSpaceOnUse" height="84" width="98" y="-6" x="-6" maskUnits="objectBoundingBox">
			<rect y="-6" x="-6" height="84" fill="#fff" width="98"/>
			<use xlink:href="#a" fill="black"/>
		</mask>
		<path id="j" d="m0 8.01c0-4.43 3.58-8.01 8-8.01h21.7c4.4 0 8 3.57 8 8.01v44.9h-37.7v-44.9z"/>
		<mask id="ae" maskContentUnits="userSpaceOnUse" height="64.8961832" width="49.6684941" y="-6" x="-6" maskUnits="objectBoundingBox">
			<rect y="-6" x="-6" height="64.9" fill="#fff" width="49.7"/>
			<use xlink:href="#j" fill="black"/>
		</mask>
		<path id="i" d="m13.1 5.62e-16c5.9 1.32e-15 10.7 5.82 10.7 13v213c0 7-4.8 13-10.7 13h-2.5c-5.84 0-10.6-6-10.6-13v-213c0-7.18 4.76-13 10.6-13l2.5 5.62e-16z"/>
		<mask id="ac" maskContentUnits="userSpaceOnUse" height="250.619742" width="35.7567489" y="-6" x="-6" maskUnits="objectBoundingBox">
			<rect y="-6" x="-6" height="251" fill="#fff" width="35.8"/>
			<use xlink:href="#i" fill="black"/>
		</mask>
		<path id="h" d="m13.1 5.62e-16c5.9 1.32e-15 10.7 5.82 10.7 13v213c0 7-4.8 13-10.7 13h-2.5c-5.84 0-10.6-6-10.6-13v-213c0-7.18 4.76-13 10.6-13l2.5 5.62e-16z"/>
		<mask id="aa" maskContentUnits="userSpaceOnUse" height="250.619742" width="35.7567489" y="-6" x="-6" maskUnits="objectBoundingBox">
			<rect y="-6" x="-6" height="251" fill="#fff" width="35.8"/>
			<use xlink:href="#h" fill="black"/>
		</mask>
		<path id="g" d="m13.1 5.62e-16c5.9 1.32e-15 10.7 5.82 10.7 13v213c0 7-4.8 13-10.7 13h-2.5c-5.84 0-10.6-6-10.6-13v-213c0-7.18 4.76-13 10.6-13l2.5 5.62e-16z"/>
		<mask id="y" maskContentUnits="userSpaceOnUse" height="250.619742" width="35.7567489" y="-6" x="-6" maskUnits="objectBoundingBox">
			<rect y="-6" x="-6" height="251" fill="#fff" width="35.8"/>
			<use xlink:href="#g" fill="black"/>
		</mask>
		<rect id="f" y=".722" x="0" height="370" width="616"/>
		<mask id="x" maskContentUnits="userSpaceOnUse" height="381.667915" width="628" y="-6" x="-6" maskUnits="objectBoundingBox">
			<rect y="-5.28" x="-6" height="382" fill="#fff" width="628"/>
			<use xlink:href="#f" fill="black"/>
		</mask>
		<rect id="e" rx="14" height="33" width="616" y="0" x="0"/>
		<mask id="v" maskContentUnits="userSpaceOnUse" height="44.9786729" width="628" y="-6" x="-6" maskUnits="objectBoundingBox">
			<rect y="-6" x="-6" height="45" fill="#fff" width="628"/>
			<use xlink:href="#e" fill="black"/>
		</mask>
		<rect id="d" rx="14" height="33" width="616" y="0" x="0"/>
		<mask id="s" maskContentUnits="userSpaceOnUse" height="44.9786729" width="628" y="-6" x="-6" maskUnits="objectBoundingBox">
			<rect y="-6" x="-6" height="45" fill="#fff" width="628"/>
			<use xlink:href="#d" fill="black"/>
		</mask>
		<path id="c" d="m91 349c0-2 1.3-3 3-3h86c2 0 3 1 3 3v14h-92v-14z"/>
		<mask id="r" maskContentUnits="userSpaceOnUse" height="29" width="104" y="-6" x="-6" maskUnits="objectBoundingBox">
			<rect y="340" x="85" height="29" fill="#fff" width="104"/>
			<use xlink:href="#c" fill="black"/>
		</mask>
		<text id="l" font-size="74" font-family="HelveticaNeue, Helvetica Neue" letter-spacing="1.09" fill="#FFFFFF">
			<tspan y="186" x="607.737646">12 Powerful Tips For</tspan>
			<tspan y="272" x="563.592293">SiteOrigin Page Builder</tspan>
		</text>
		<filter id="ag" height="200%" width="200%" y="-50%" x="-50%" filterUnits="objectBoundingBox">
			<feOffset in="SourceAlpha" result="shadowOffsetOuter1" dx="0" dy="2"/>
			<feGaussianBlur stdDeviation="1" result="shadowBlurOuter1" in="shadowOffsetOuter1"/>
			<feColorMatrix type="matrix" values="0 0 0 0 0   0 0 0 0 0   0 0 0 0 0  0 0 0 0.302564538 0" in="shadowBlurOuter1"/>
		</filter>
	</defs>
	<g id="HD-Screen" fill-rule="evenodd" transform="translate(2.09e3 48)" fill="none">
		<rect id="Background" height="1.08e3" width="1.92e3" y="0" x="1" fill="#31B5E1"/>
		<g id="Left-Light" transform="translate(438 272) scale(-1 1) rotate(45) translate(-216 -521)">
			<path id="Combined-Shape" style="mix-blend-mode:darken" fill-opacity=".0524" fill="#000" d="m253 180c5 8 25 63 25 67 0 2-22 3-44 3s-42-1-42-3 19-57 24-66v-43c0-4 3-8 8-8h21c5 0 8 4 8 8v42z"/>
			<polygon id="Lighting" style="mix-blend-mode:overlay" fill="#fff" points="248 239 431 1.04e3 1.14e-12 1.04e3 183 239" fill-opacity=".176"/>
			<ellipse id="Bulb-Light" style="mix-blend-mode:overlay" fill-opacity=".136" rx="27" ry="36" cy="252" cx="216" fill="#fff"/>
			<path id="Wire" stroke="#000" stroke-width="6" stroke-linecap="square" d="m216 142v-141"/>
			<g id="Bottom-Part" transform="translate(216 224) scale(-1 1) translate(-43 -36)">
				<mask id="n" fill="white">
					<use xlink:href="#k"/>
				</mask>
				<g id="Mask">
					<use xlink:href="#k" fill-rule="evenodd" fill="#363636"/>
					<use stroke-linejoin="round" stroke="#000000" stroke-width="12" mask="url(#t)" xlink:href="#k"/>
				</g>
				<ellipse id="Oval" style="mix-blend-mode:overlay" fill-opacity=".191" rx="72.5" mask="url(#n)" ry="75.5" cy="71.5" cx="86.5" fill="#fff"/>
				<ellipse id="Oval-Copy" style="mix-blend-mode:overlay" fill-opacity=".421" rx="72.5" mask="url(#n)" ry="75.5" cy="112" cx="99.5" fill="#fff"/>
			</g>
			<g id="Top-Part" transform="translate(197 136)">
				<mask id="q" fill="white">
					<use xlink:href="#b"/>
				</mask>
				<use xlink:href="#b" fill-rule="evenodd" fill="#DEC059"/>
				<use xlink:href="#b" stroke="#000000" stroke-width="12" mask="url(#p)"/>
				<ellipse style="mix-blend-mode:overlay" fill-opacity=".496" rx="42.5" mask="url(#q)" ry="60.5" cy="52.5" cx="-14.5" fill="#fff"/>
			</g>
		</g>
		<g id="Right-Light" transform="translate(1.48e3 271) rotate(45) translate(-210 -520)">
			<path id="Combined-Shape-Copy" style="mix-blend-mode:darken" fill-opacity=".0524" fill="#000" d="m254 182c4 8 24 63 24 67 0 2-22 3-44 3s-42-1-42-3 19-57 24-67v-42c0-4 4-8 8-8h22c4 0 8 4 8 8v42z"/>
			<polygon id="Lighting" style="mix-blend-mode:overlay" fill="#fff" points="248 239 431 1.04e3 8.41e-12 1.04e3 183 239" fill-opacity=".176"/>
			<ellipse id="Bulb-Light" style="mix-blend-mode:overlay" fill-opacity=".14" rx="27" ry="36" cy="252" cx="216" fill="#fff"/>
			<path id="Wire" stroke="#000" stroke-width="6" stroke-linecap="square" d="m216 142v-141"/>
			<g id="Bottom-Part" transform="translate(216 224) scale(-1 1) translate(-43 -36)">
				<mask id="m" fill="white">
					<use xlink:href="#a"/>
				</mask>
				<g id="Mask">
					<use xlink:href="#a" fill-rule="evenodd" fill="#363636"/>
					<use stroke-linejoin="round" stroke="#000000" stroke-width="12" mask="url(#o)" xlink:href="#a"/>
				</g>
				<ellipse id="Oval" style="mix-blend-mode:overlay" fill-opacity=".191" rx="72.5" mask="url(#m)" ry="75.5" cy="71.5" cx="86.5" fill="#fff"/>
				<ellipse id="Oval-Copy" style="mix-blend-mode:overlay" fill-opacity=".421" rx="72.5" mask="url(#m)" ry="75.5" cy="112" cx="99.5" fill="#fff"/>
			</g>
			<g id="Top-Part" transform="translate(197 136)">
				<mask id="af" fill="white">
					<use xlink:href="#j"/>
				</mask>
				<use xlink:href="#j" fill-rule="evenodd" fill="#DEC059"/>
				<use xlink:href="#j" stroke="#000000" stroke-width="12" mask="url(#ae)"/>
				<ellipse style="mix-blend-mode:overlay" fill-opacity=".496" rx="42.5" mask="url(#af)" ry="60.5" cy="52.5" cx="-14.5" fill="#fff"/>
			</g>
		</g>
		<g id="Education-Board" transform="translate(653 396)">
			<g id="Legs" transform="translate(127 329)">
				<g id="Left-Leg" transform="translate(71.7 133) rotate(30) translate(-12.1 -119)">
					<mask id="ad" fill="white">
						<use xlink:href="#i"/>
					</mask>
					<use xlink:href="#i" fill-rule="evenodd" fill="#D1D1D1"/>
					<use xlink:href="#i" stroke="#000000" stroke-width="12" mask="url(#ac)"/>
					<path id="Rectangle-3-Copy" style="mix-blend-mode:overlay" d="m2.55-4.17c5.87 0 10.6 5.82 10.6 13v212c0 8-4.78 13-10.6 13h-2.56c-5.86 0-10.6-5-10.6-13v-212c0-7.35 4.77-13.2 10.6-13.2l2.55 0.03z" fill-opacity=".486" mask="url(#ad)" fill="#fff"/>
				</g>
				<g id="Center-Leg" transform="translate(169)">
					<mask id="ab" fill="white">
						<use xlink:href="#h"/>
					</mask>
					<use xlink:href="#h" fill-rule="evenodd" fill="#D1D1D1"/>
					<use xlink:href="#h" stroke="#000000" stroke-width="12" mask="url(#aa)"/>
					<path id="Rectangle-3-Copy" style="mix-blend-mode:overlay" d="m2.55-4.17c5.87 0 10.6 5.82 10.6 13v212c0 8-4.78 13-10.6 13h-2.56c-5.86 0-10.6-5-10.6-13v-212c0-7.35 4.77-13.2 10.6-13.2l2.55 0.03z" fill-opacity=".486" mask="url(#ab)" fill="#fff"/>
				</g>
				<g id="Right-Leg" transform="translate(291 133) scale(-1 1) rotate(30) translate(-12 -119)">
					<mask id="z" fill="white">
						<use xlink:href="#g"/>
					</mask>
					<use xlink:href="#g" fill-rule="evenodd" fill="#D1D1D1"/>
					<use xlink:href="#g" stroke="#000000" stroke-width="12" mask="url(#y)"/>
					<path id="Rectangle-3-Copy" style="mix-blend-mode:overlay" d="m2.55-4.17c5.87 0 10.6 5.82 10.6 13v212c0 8-4.78 13-10.6 13h-2.56c-5.86 0-10.6-5-10.6-13v-212c0-7.35 4.77-13.2 10.6-13.2l2.55 0.03z" fill-opacity=".486" mask="url(#z)" fill="#fff"/>
				</g>
			</g>
			<rect id="Bottom-Shadow" fill-opacity=".139" rx="14" height="45.2" width="595" y="371" x="11" fill="#000"/>
			<g id="Main-Board">
				<g id="Screen" transform="translate(0 16)">
					<mask fill="white">
						<use xlink:href="#f"/>
					</mask>
					<use xlink:href="#f" fill-rule="evenodd" fill="#FFFFFF"/>
					<use xlink:href="#f" stroke="#121212" stroke-width="12" mask="url(#x)"/>
				</g>
				<g id="Top">
					<mask id="w" fill="white">
						<use xlink:href="#e"/>
					</mask>
					<g id="Mask">
						<use xlink:href="#e" fill-rule="evenodd" fill="#6AB91C"/>
						<use xlink:href="#e" stroke="#000000" stroke-width="12" mask="url(#v)"/>
					</g>
					<rect id="Shadow" style="mix-blend-mode:overlay" fill-opacity=".547" rx="14" mask="url(#w)" height="33" width="616" y="14.6" x="0" fill="#000"/>
				</g>
				<g id="Bottom" transform="translate(0 370)">
					<mask id="u" fill="white">
						<use xlink:href="#d"/>
					</mask>
					<g id="Mask">
						<use xlink:href="#d" fill-rule="evenodd" fill="#6AB91C"/>
						<use xlink:href="#d" stroke="#000000" stroke-width="12" mask="url(#s)"/>
					</g>
					<rect id="Shadow" style="mix-blend-mode:overlay" fill-opacity=".514" rx="14" mask="url(#u)" height="33" width="616" y="14.6" x="0" fill="#000"/>
				</g>
				<g id="Board-Contents" opacity=".704" fill-rule="nonzero" fill="#000" transform="translate(43.4 105)">
					<path id="Shape" d="m185 60.2l-88.3 51.8c-1.4 1-3.2 1-4.6 0l-88.3-51.8c-1.4-0.8-2.25-2.2-2.25-3.8s0.85-3.1 2.22-3.9l88.3-51.9c1.4-0.809 3.2-0.809 4.6 0.026l88.3 51.9c1 0.8 2 2.3 2 3.9s-1 3-2 3.8z"/>
					<path id="Shape" opacity=".5" d="m183 103l-87.9 52c-1.4 1-3.2 1-4.6 0l-88.3-52c-1.36-1-2.2-2-2.2-3.7 0-1.6 0.842-3 2.22-3.8l88.3-51.9c1.4-0.9 3.2-0.9 4.6 0l87.9 51.9c2 0.8 3 2.2 3 3.8 0 1.7-1 2.7-3 3.7z"/>
					<path id="Shape" opacity=".2" d="m183 141l-87.9 52h-4.6l-88.3-52c-1.36-1-2.2-3-2.2-4 0-2 0.842-3 2.22-4l88.3-51.8c1.4-0.9 3.2-0.9 4.6 0l87.9 51.8c2 1 3 2 3 4 0 1-1 3-3 4z"/>
				</g>
				<g id="Writing" opacity=".556" transform="translate(288 107)" stroke="#000" stroke-linecap="square" stroke-width="11">
					<path id="Line" d="m0.637 5.75h285"/>
					<path id="Line" d="m0.637 27.7h285"/>
					<path id="Line" d="m0.637 49.6h285"/>
					<path d="m0.637 72.6h285"/>
					<path d="m0.637 94.6h285"/>
					<path id="Line-Copy" d="m0.637 118h285"/>
					<path d="m0.637 140h285"/>
					<path d="m0.637 161h285"/>
					<path d="m0.637 184h285"/>
				</g>
			</g>
			<mask fill="white">
				<use xlink:href="#c"/>
			</mask>
			<g id="Duster">
				<use xlink:href="#c" fill-rule="evenodd" fill="#858585"/>
				<use xlink:href="#c" stroke="#000000" stroke-width="12" mask="url(#r)"/>
			</g>
		</g>
		<g id="12-Powerful-Tips-For" fill="#fff">
			<use filter="url(#ag)" xlink:href="#l"/>
			<use xlink:href="#l"/>
		</g>
	</g>
</svg>
